<?xml version="1.0" encoding="UTF-8"?>
<svg xmlns="http://www.w3.org/2000/svg" viewBox="0 0 779.01 367.75">
  <defs>
    <style>
      .cls-1 {
        font-size: 154px;
      }

      .cls-2, .cls-3 {
        fill: #fff;
      }

      .cls-3 {
        font-family: BebasNeue-Regular, 'Bebas Neue';
      }

      .cls-4 {
        letter-spacing: .03em;
      }

      .cls-5 {
        fill: #7d1416;
      }

      .cls-6 {
        font-size: 77px;
      }

      .cls-7 {
        letter-spacing: .03em;
      }
    </style>
  </defs>
  <g id="Layer_1" data-name="Layer 1">
    <text class="cls-3" transform="translate(345.35 147.26)"><tspan class="cls-6"><tspan x="0" y="0">The</tspan></tspan><tspan class="cls-1"><tspan class="cls-7" x="-345.35" y="125">T</tspan><tspan class="cls-4" x="-284.54" y="125">orchbearer</tspan><tspan x="376.38" y="125">s</tspan></tspan></text>
    <path class="cls-5" d="M404.27,287.53c-3.37,26.76-8.15,55.71-13.06,55.71s-9.69-28.95-13.06-55.71h-8.63s10.58,80.22,21.69,80.22,21.69-80.22,21.69-80.22h-8.63Z"/>
    <rect class="cls-2" x="259.77" y="287.53" width="98.5" height="8.53"/>
    <rect class="cls-2" x="424.16" y="287.53" width="98.5" height="8.53"/>
  </g>
  <g id="Layer_2" data-name="Layer 2">
    <path class="cls-5" d="M335.16,151.18c-9.44-12.53-22.38-36.8-9.97-67.84,7.6-19.02,21.62-22.12,29.93-29.23C389.5,24.68,382.52-.05,382.66,0c.17.06,23.08,40.97-42.34,83.82-30.21,19.79-1.42,69.35-5.16,67.36Z"/>
    <path class="cls-5" d="M469.53,103.96c.83-12.07-.65-17.87-18.24-25.83-37.42-16.94-21.97-45.91-21.97-45.91-5.17.49-14.83,27.84-2.66,44.97,8.73,12.29,26.55,6.04,30.23,38.55,2.48,21.86-6.6,34.98-5.31,35.49,1.86.74,16.26-22.81,17.94-47.27Z"/>
  </g>
</svg>